<svg xmlns="http://www.w3.org/2000/svg" xmlns:xlink="http://www.w3.org/1999/xlink" width="30" height="38" viewBox="0 0 30 38">
    <defs>
        <path id="a" d="M85.951 3385.013a.885.885 0 0 1-.877.892H67.911a.885.885 0 0 1-.877-.892v-25.043c0-.493.393-.893.877-.893h17.163c.484 0 .877.4.877.893zm-.87-28.013H67.919c-1.61 0-2.918 1.331-2.918 2.97v25.06c0 1.639 1.308 2.97 2.918 2.97h17.164c1.61 0 2.918-1.331 2.918-2.97v-25.06c-.008-1.639-1.316-2.97-2.918-2.97z"/>
        <path id="b" d="M92.082 3350H74.918c-1.61 0-2.918 1.331-2.918 2.97 0 .577.454 1.039 1.02 1.039.568 0 1.021-.462 1.021-1.039 0-.492.394-.893.877-.893h17.164c.483 0 .877.4.877.893v25.06a.886.886 0 0 1-.877.893c-.568 0-1.021.461-1.021 1.038s.453 1.039 1.02 1.039c1.611 0 2.919-1.331 2.919-2.97v-25.06c0-1.639-1.308-2.97-2.918-2.97z"/>
    </defs>
    <use xlink:href="#a" transform="translate(-65 -3350)"/>
    <use xlink:href="#b" transform="translate(-65 -3350)"/>
</svg>
