<?xml version="1.0" encoding="UTF-8"?><!DOCTYPE svg PUBLIC "-//W3C//DTD SVG 1.1//EN" "http://www.w3.org/Graphics/SVG/1.1/DTD/svg11.dtd"><svg xmlns="http://www.w3.org/2000/svg"><symbol id="icon-pen" viewBox="0 0 19 19">
    <style>
        .st0{opacity:.9}.st1{opacity:0}.st2{fill:#fff}
    </style>
    <g class="st0">
        <g transform="translate(-1019 -27)">
            <path d="M1034.2 43.4c-.2-.1-.5-.2-.7-.3l1.6-1.6c.1.2.2.5.3.7l.5 1.7-1.7-.5zm-5.7-5.1l1.8-1.8 4.2 4.2.1.1-1.8 1.8-.1-.1-4.2-4.2zm-1.5-1.5l1.8-1.8.9.9-1.8 1.8-.9-.9zm-5-4.9l1.8-1.8 4.4 4.4-1.8 1.8-4.4-4.4zm-1.1-2.4l.5-.5c.2-.2.4-.2.6 0l.9.9-1.1 1.1-.9-.9c-.1-.2-.1-.5 0-.6zm15.3 12.5c-.2-.7-.6-1.3-1.1-1.9l-11-10.9c-.2-.2-.4-.2-.6 0l-.1.1-.9-.9c-.5-.5-1.3-.5-1.8 0l-.5.5c-.5.5-.5 1.3 0 1.7l.9.9-.3.3c-.8.8-.8 2.1 0 2.9l3.3 3.3c.2.2.4.1.6 0 .1-.2.1-.4 0-.5l-3.3-3.3c-.5-.5-.5-1.2 0-1.7l4.9 4.9.9.9.6.6 4.2 4.2c.5.5 1.2.9 1.9 1.1l2.5.8c.2.1.4-.1.5-.3v-.2l-.7-2.5z" id="vx3ea"/>
        </g>
        <g transform="translate(-1019 -27)">
            <g id="vx3ea_1_">
                <g class="st1">
                    <path class="st2" d="M1034.2 43.4c-.2-.1-.5-.2-.7-.3l1.6-1.6c.1.2.2.5.3.7l.5 1.7-1.7-.5zm-5.7-5.1l1.8-1.8 4.2 4.2.1.1-1.8 1.8-.1-.1-4.2-4.2zm-1.5-1.5l1.8-1.8.9.9-1.8 1.8-.9-.9zm-5-4.9l1.8-1.8 4.4 4.4-1.8 1.8-4.4-4.4zm-1.1-2.4l.5-.5c.2-.2.4-.2.6 0l.9.9-1.1 1.1-.9-.9c-.1-.2-.1-.5 0-.6zm15.3 12.5c-.2-.7-.6-1.3-1.1-1.9l-11-10.9c-.2-.2-.4-.2-.6 0l-.1.1-.9-.9c-.5-.5-1.3-.5-1.8 0l-.5.5c-.5.5-.5 1.3 0 1.7l.9.9-.3.3c-.8.8-.8 2.1 0 2.9l3.3 3.3c.2.2.4.1.6 0 .1-.2.1-.4 0-.5l-3.3-3.3c-.5-.5-.5-1.2 0-1.7l4.9 4.9.9.9.6.6 4.2 4.2c.5.5 1.2.9 1.9 1.1l2.5.8c.2.1.4-.1.5-.3v-.2l-.7-2.5z"/>
                </g>
                <path d="M1036.6 45.5h-.3l-2.5-.8c-.8-.2-1.5-.7-2.1-1.2l-10.1-10.1c0 .2.1.4.2.5l3.3 3.3c.3.4.3.9 0 1.2-.2.2-.4.3-.6.3-.3 0-.5-.1-.7-.2l-3.3-3.3c-.5-.5-.8-1.1-.8-1.8s.3-1.3.7-1.8l-.4-.6c-.7-.7-.7-1.8 0-2.4l.5-.5c.3-.3.8-.5 1.2-.5.5 0 .9.2 1.2.5l.6.6c.3-.1.7 0 .9.2l11 10.9c.6.6 1 1.3 1.2 2.1l.8 2.5c.1.2.1.4 0 .5-.1.3-.4.6-.8.6zm-2.2-2.5l.8.3-.3-.8-.5.5zm-5.2-4.7l3.7 3.7 1.1-1.1-3.7-3.7-1.1 1.1zm-4.6-.6zm3.1-.9l.2.2 1.1-1.1-.2-.2-1.1 1.1zm-4.9-4.9l3.7 3.7 1.1-1.1-3.7-3.7-1.1 1.1zm-1.4-2.1l.5.5.4-.4-.5-.5-.4.4z"/>
            </g>
        </g>
    </g>
</symbol><symbol id="icon-phone" viewBox="0 0 18 18">
    <style>
        .st0{opacity:.9}.st1{opacity:0}.st2{fill:#fff}
    </style>
    <g class="st0">
        <g transform="translate(-1197 -27)">
            <path id="hlg3a" d="M1198.8 31.5c0-.4.2-.8.5-1.1l1.2-1.2c.2-.2.4-.3.6-.3.2 0 .4.1.6.3.2.2.4.4.7.6.1.1.2.2.3.4l1 1c.2.2.3.4.3.6 0 .2-.1.4-.3.6l-.3.3-.9.9c-.3.3-.2.5-.2.7.3.6.6 1.2 1.2 1.9 1 1.2 2.1 2.2 3.2 2.9.1.1.3.2.4.2.1.1.3.1.4.2.1.1.2.1.3.1.3 0 .4-.2.5-.2l1.2-1.2c.2-.2.4-.3.6-.3.3 0 .5.2.6.3l2 2c.4.4.4.8 0 1.3-.1.2-.3.3-.4.4l-.7.7c-.4.4-.8.6-1.4.6h-.2c-1.1-.1-2.1-.5-2.9-.9-2.1-1-3.9-2.4-5.4-4.2-1.2-1.5-2.1-2.9-2.6-4.4-.2-.8-.3-1.6-.3-2.2zm2.4 7.1c1.6 1.9 3.5 3.4 5.7 4.4.8.4 1.9.9 3.2.9h.2c.8 0 1.5-.3 2-.9.2-.2.4-.4.6-.7.2-.1.3-.3.5-.5.7-.7.7-1.7 0-2.4l-2-2c-.3-.4-.7-.5-1.2-.5s-.8.2-1.2.5l-1.2 1.2c-.1-.1-.2-.1-.3-.2-.1-.1-.2-.1-.4-.2-1.1-.7-2.1-1.6-3-2.7-.5-.6-.8-1.1-1-1.6l.9-.9.3-.3c.4-.4.6-.8.6-1.2 0-.4-.2-.8-.6-1.2l-1-1-.3-.3c-.2-.2-.4-.5-.7-.7-.3-.3-.7-.5-1.2-.5-.4 0-.8.2-1.2.5l-1.2 1.2c-.5.5-.7 1-.8 1.6-.1.8.1 1.6.5 2.7.7 1.8 1.5 3.3 2.8 4.8z"/>
        </g>
        <g transform="translate(-1197 -27)">
            <g id="hlg3a_1_">
                <g class="st1">
                    <path class="st2" d="M1198.8 31.5c0-.4.2-.8.5-1.1l1.2-1.2c.2-.2.4-.3.6-.3.2 0 .4.1.6.3.2.2.4.4.7.6.1.1.2.2.3.4l1 1c.2.2.3.4.3.6 0 .2-.1.4-.3.6l-.3.3-.9.9c-.3.3-.2.5-.2.7.3.6.6 1.2 1.2 1.9 1 1.2 2.1 2.2 3.2 2.9.1.1.3.2.4.2.1.1.3.1.4.2.1.1.2.1.3.1.3 0 .4-.2.5-.2l1.2-1.2c.2-.2.4-.3.6-.3.3 0 .5.2.6.3l2 2c.4.4.4.8 0 1.3-.1.2-.3.3-.4.4l-.7.7c-.4.4-.8.6-1.4.6h-.2c-1.1-.1-2.1-.5-2.9-.9-2.1-1-3.9-2.4-5.4-4.2-1.2-1.5-2.1-2.9-2.6-4.4-.2-.8-.3-1.6-.3-2.2zm2.4 7.1c1.6 1.9 3.5 3.4 5.7 4.4.8.4 1.9.9 3.2.9h.2c.8 0 1.5-.3 2-.9.2-.2.4-.4.6-.7.2-.1.3-.3.5-.5.7-.7.7-1.7 0-2.4l-2-2c-.3-.4-.7-.5-1.2-.5s-.8.2-1.2.5l-1.2 1.2c-.1-.1-.2-.1-.3-.2-.1-.1-.2-.1-.4-.2-1.1-.7-2.1-1.6-3-2.7-.5-.6-.8-1.1-1-1.6l.9-.9.3-.3c.4-.4.6-.8.6-1.2 0-.4-.2-.8-.6-1.2l-1-1-.3-.3c-.2-.2-.4-.5-.7-.7-.3-.3-.7-.5-1.2-.5-.4 0-.8.2-1.2.5l-1.2 1.2c-.5.5-.7 1-.8 1.6-.1.8.1 1.6.5 2.7.7 1.8 1.5 3.3 2.8 4.8z"/>
                </g>
                <path d="M1210.3 44.5h-.3c-1.3-.1-2.5-.6-3.4-1-2.3-1.1-4.2-2.6-5.8-4.6-1.3-1.6-2.2-3.1-2.9-4.7-.4-1.1-.6-2-.5-2.9.1-.8.4-1.4.9-1.9l1.2-1.2c.9-.9 2.2-.9 3.1 0 .2.2.5.4.7.7l1.3 1.3c.5.5.7 1 .7 1.5 0 .6-.2 1.1-.7 1.5l-.3.3-.6.6c.2.4.4.7.8 1.2.9 1.1 1.9 2 2.9 2.6.1.1.2.1.3.2l.9-.9c.9-.9 2.2-.9 3.1 0l2 2c.9.9.9 2.1 0 3.1l-.5.5c-.3.2-.4.4-.6.6l-.1.1c-.4.7-1.2 1-2.2 1zm-11-13c0 .6.1 1.3.4 2.1.5 1.4 1.3 2.8 2.5 4.2 1.4 1.7 3.2 3.1 5.2 4.1.7.3 1.7.7 2.7.8h.1c.4 0 .8-.1 1.1-.4.2-.2.4-.5.7-.7l.5-.5c.2-.3.2-.4 0-.6l-2-2c-.2-.2-.3-.2-.5 0l-1.2 1.2c-.3.3-.6.4-.8.4-.2 0-.4 0-.5-.1-.2-.1-.3-.2-.4-.2-.2-.1-.4-.2-.5-.3-1.2-.8-2.3-1.8-3.3-3-.6-.7-1-1.3-1.2-2-.2-.5-.1-1 .3-1.3.3-.3.6-.5.8-.8l.4-.4c.2-.2.2-.2.2-.3 0-.1-.1-.2-.2-.3L1202 30l-.6-.6c-.2-.2-.3-.2-.5 0l-1.2 1.2c-.2.3-.3.6-.4.9z"/>
            </g>
        </g>
    </g>
</symbol></svg>